<?xml version="1.0" encoding="UTF-8"?>
<svg version="1.1" viewBox="0 0 1600 1200" width="1280" height="1280" xmlns="http://www.w3.org/2000/svg">
<path transform="translate(0)" d="m0 0h1600v1200h-1600v-1200z" fill="#000202"/>
<path transform="translate(0)" d="m0 0h1600v1200h-1600v-1200zm64.8 64.9c-3.75 1.06-3.75 1.06-7.13 0.81-4.65 0.32-6.78 2.23-10.5 4.91-2.81 1.74-4.93 1.84-8.16 1.34-1.61 2.5-2.03 3.7-1.69 6.7l1.38 5.94c0.31 3.36 0.31 3.36-0.66 7.01-1.7 7.34-1.3 14.9-1.27 22.4v5.25c-0.01 4.82 0 9.64 0.01 14.4 0.01 5.24 0.01 10.5 0.01 15.7 0 9.19 0.01 18.4 0.02 27.6 0.02 13.6 0.03 27.3 0.03 41 0.01 22.3 0.03 44.5 0.05 66.8 0.02 23.5 0.04 46.9 0.05 70.4v2.14c0 7.9 0 15.8 0.01 23.7 0 14.6 0.01 29.2 0.01 43.8 0 0.73 0.01 1.46 0.01 2.21 0.01 34.8 0.03 69.6 0.05 104 0 2.31 0.01 4.61 0.01 6.92 0.02 34.8 0.04 69.6 0.07 104 0 3.86 0 7.73 0.01 11.6v2.31c0 7.71 0.01 15.4 0.01 23.1 0.01 2.3 0.01 4.61 0.01 6.92 0.03 34.8 0.05 69.5 0.06 104v2.21c0.01 15.3 0.01 30.6 0.02 46 0 7.17 0 14.3 0.01 21.5v2.14c0.01 22.7 0.02 45.5 0.05 68.2 0.02 23.5 0.04 47.1 0.04 70.6 0 13.6 0.01 27.2 0.04 40.7 0.01 9.07 0.01 18.1 0.01 27.2 0 5.17 0 10.3 0.01 15.5 0.02 4.71 0.02 9.41 0.01 14.1-0.01 1.69 0 3.38 0.01 5.07 0.04 8.43-0.23 16.2-2.71 24.4-1.38 5.24-1.06 10.5-0.05 15.8 0.47 3.4-0.35 5.6-1.62 8.75 0.99 1.67 0.99 1.67 3 3 1.95 0 3.89-0.01 5.84-0.1 2.36 0.11 3.83 0.68 5.97 1.66 4.34 1.83 7.81 1.23 12.4 0.64 3.7-0.26 6.85 0.47 10.4 1.32 4.05 0.83 8.58 1.37 12.4-0.52 2.54-0.02 5.05 0.03 7.59 0.12 1.65 0.05 3.31 0.09 4.96 0.14 0.89 0.03 1.78 0.06 2.7 0.08 18.1 0.55 36.3 0.77 54.4 0.79h3.58 22.9 18.9c13 0.01 26 0.01 39.1 0h39.5 2.54 10.2c31.6 0.01 63.2 0.01 94.9 0.01h2.83 2.83c28.6-0.01 57.1-0.01 85.6-0.01h5.75c7.7 0 15.4 0 23.1 0.01h64.6 2.96c31.2 0 62.4 0 93.5-0.01h3.06 49.2 195 49.3 3.07c31.2 0.01 62.4 0.01 93.5 0.01h2.96c21.5 0 43 0 64.4-0.01h23 5.73c28.6 0 57.1 0 85.7 0.01h2.84 2.83c31.5 0 63 0 94.5-0.01h10.1 2.51 39.4c12.9 0.01 25.8 0 38.8 0h20.7 18.8 6.8 9.19 2.67c4.75-0.01 9.23-0.41 13.9-1.13 1.67 0.3 3.34 0.64 5 1 3.67 0.2 7.14 0.18 10.8-0.56 2.44-0.48 3.91-0.22 6.25 0.56v-2c0.93 0.01 1.86 0.02 2.82 0.04 7.68 0.15 7.68 0.15 15.3-0.6 2.88-0.44 2.88-0.44 5 0.12 2.83 0.66 4.41-0.16 6.88-1.56 1.61-4.04 0.38-7.4-0.62-11.5-0.42-2.8-0.01-4.81 0.62-7.54-0.39-2.14-0.39-2.14-1-4v-2c-0.15-1.38-0.32-2.75-0.5-4.12-0.25-1.92-0.25-1.92-0.5-3.88-2.34 0.26-4.68 0.59-7 1l-1 2c-0.39-1.6-0.76-3.21-1.12-4.81-0.21-0.9-0.42-1.79-0.64-2.71-0.24-2.48-0.24-2.48 1.76-5.48 0.3-3.15 0.3-3.15 0.25-6.82v-2.13c0.01-2.37 0-4.75-0.01-7.12 0-1.72 0-3.44 0.01-5.16 0-4.76-0.01-9.52-0.02-14.3-0.01-5.17 0-10.3 0-15.5 0-9.06-0.01-18.1-0.02-27.2-0.02-13.5-0.02-26.9-0.02-40.4-0.01-22-0.02-43.9-0.04-65.9-0.02-23.2-0.03-46.3-0.04-69.4v-2.11c0-7.79 0-15.6-0.01-23.4 0-14.4 0-28.8-0.01-43.2v-2.19c-0.01-34.3-0.03-68.6-0.05-103v-6.83c-0.01-22.9-0.03-45.7-0.04-68.6-0.01-23.6-0.03-47.2-0.04-70.9v-6.83c-0.02-34.3-0.04-68.5-0.05-103v-2.19c-0.01-14.4-0.01-28.8-0.02-43.1v-23.3-2.11c-0.01-23.1-0.02-46.3-0.04-69.4-0.02-22.5-0.03-45-0.04-67.6 0-13.4-0.01-26.8-0.03-40.2-0.01-8.93-0.01-17.9-0.01-26.8 0-5.1 0-10.2-0.01-15.3-0.01-4.63-0.01-9.26 0-13.9 0-1.68 0-3.35-0.01-5.03-0.01-2.25 0-4.51 0-6.76v-3.81c0.25-2.89 0.25-2.89 2.25-4.89l4 2c4.07-4.91 3.3-10.2 3.12-16.2-0.04-1.99-0.08-3.98-0.11-5.98-0.03-0.88-0.05-1.76-0.08-2.66 0.07-2.17 0.07-2.17 1.07-4.17 0.33-3 0.33-3 0-6-3.17-2.11-4.03-2.25-7.68-2.31-0.91-0.02-1.82-0.05-2.76-0.07-1.9-0.04-3.81-0.07-5.71-0.1-1.38-0.04-1.38-0.04-2.78-0.08-1.24-0.02-1.24-0.02-2.51-0.04-2.56-0.4-2.56-0.4-5.1-1.9-4.58-1.99-8.45-1.92-13.4-1.88-1.51-0.01-1.51-0.01-3.04-0.01-3.38-0.01-6.77 0-10.2 0.01-2.45-0.01-4.9-0.01-7.35-0.02-5.36-0.01-10.7-0.01-16.1-0.01-8.02 0.01-16 0.01-24.1-0.01-13.7-0.01-27.3-0.02-41-0.01-13.9 0-27.7 0-41.6-0.02h-2.65c-4.46 0-8.92-0.01-13.4-0.01-32.3-0.03-64.6-0.04-96.8-0.04-32-0.01-64-0.02-95.9-0.04h-3c-9.07 0-18.1-0.01-27.2-0.02-22.5-0.01-45.1-0.02-67.6-0.03-1.03 0-2.06 0-3.11-0.01-49.9-0.02-99.9-0.04-150-0.05-17.3-0.01-34.7-0.01-52-0.02h-3.25c-50-0.02-99.9-0.04-150-0.07h-9.73c-21.5-0.01-43-0.02-64.5-0.03-42.8-0.03-85.5-0.05-128-0.07h-6.11c-91.7-0.05-183-0.08-275-0.12h-2.6c-43-0.01-85.9-0.03-129-0.04v-1h-8v1c-2.27 0.03-4.54 0.05-6.81 0.06-1.9 0.02-1.9 0.02-3.83 0.04-4.85-0.69-4.85-0.69-9.61-0.16z" fill="#000002"/>
<path transform="translate(914 400)" d="m0 0c3.46 1.13 5.8 2.9 8.69 5.12 1.01 0.77 2.02 1.54 3.06 2.33 2.83 2.34 5.35 4.82 7.94 7.43 1.81 1.52 3.65 3.02 5.5 4.5 3.74 2.98 7.14 6.09 10.5 9.5 5.07 4.71 10.3 9.12 15.9 13.3 2.56 2.08 4.8 4.4 7.14 6.74 2.17 1.95 4.39 3.85 6.62 5.74 0.61 0.52 1.22 1.04 1.84 1.58 4.79 4.08 9.67 8.04 14.6 11.9 0.95 0.87 0.95 0.87 1.92 1.75v2c0.83 0.37 0.83 0.37 1.69 0.74 4.83 2.62 8.45 6.4 12.3 10.3 6.35 6 12.8 11.7 19.7 17.2 2.31 1.83 4.58 3.69 6.83 5.59 0.63 0.54 1.26 1.07 1.9 1.61 3.15 3.24 3.85 6.16 3.85 10.6 0 1.51 0 1.51 0.01 3.04-0.01 1.65-0.01 1.65-0.02 3.34 0.01 1.17 0.01 2.34 0.01 3.54 0.01 3.25 0 6.5-0.01 9.75 0 3.51 0 7.01 0.01 10.5 0 6.86 0 13.7-0.01 20.6-0.01 7.99-0.01 16-0.01 24 0 14.2-0.01 28.5-0.03 42.7-0.01 13.8-0.02 27.7-0.02 41.5v2.58 2.58c0 15.7 0 31.5-0.01 47.2 0 5.58-0.01 11.2-0.01 16.7 0 6.78 0 13.6-0.01 20.4 0 3.47-0.01 6.93-0.01 10.4 0 3.75 0 7.5-0.01 11.2 0 1.11 0 2.22 0.01 3.36-0.01 0.99-0.01 1.99-0.01 3.02 0 0.86-0.01 1.73-0.01 2.62-0.12 1.96-0.12 1.96-1.12 2.96-1.38 0.09-2.76 0.13-4.13 0.13-1.34 0.01-1.34 0.01-2.7 0.01h-2.98c-1.04 0-2.07 0.01-3.13 0.01-3.42 0.01-6.85 0.01-10.3 0.01-2.37 0.01-4.74 0.01-7.11 0.01-4.97 0.01-9.95 0.01-14.9 0.01-6.39 0-12.8 0.01-19.2 0.03-4.9 0.01-9.79 0.01-14.7 0.01-2.36 0-4.71 0.01-7.07 0.02-3.29 0.01-6.58 0-9.87 0-0.98 0-1.97 0.01-2.98 0.01-0.89 0-1.78 0-2.7-0.01h-2.36c-1.9-0.24-1.9-0.24-3.9-2.24-1.66-9.48-2.18-20.6 0-30 3.17-0.94 6.01-1.13 9.32-1.12h3.21c1.14 0.01 2.28 0.01 3.45 0.02h3.55c3.74 0.01 7.48 0.02 11.2 0.03 2.53 0.01 5.07 0.01 7.6 0.02 6.22 0.01 12.4 0.02 18.6 0.05-0.11-1.81-0.11-1.81-0.22-3.66-0.64-11.4-0.91-22.8-0.86-34.2 0.02-2.79 0.02-5.57 0.03-8.36 0.01-5.88 0.03-11.8 0.05-17.7 0.02-6.88 0.04-13.8 0.05-20.6 0.01-2.73 0.02-5.46 0.04-8.2 0-1.67 0-3.34 0.01-5.02 0-0.75 0.01-1.5 0.01-2.27 0-4.1-0.31-7.96-1.11-12-2.64-0.34-5.28-0.66-8-1v-1c-4.87-1.27-9.66-1.14-14.7-1.12h-2.93c-3.18 0-6.37 0.01-9.56 0.02h-6.63l-17.5 0.03c-5.94 0.01-11.9 0.01-17.8 0.02-11.6 0.01-23.3 0.02-34.9 0.05v3.87c0.02 12.2 0.04 24.5 0.05 36.7 0 6.29 0.01 12.6 0.02 18.9 0.06 29.5-0.07 59-1.07 88.5-8.31 0.04-16.6 0.08-24.9 0.1-3.86 0.01-7.72 0.02-11.6 0.05-3.72 0.02-7.44 0.03-11.2 0.03-1.42 0.01-2.85 0.02-4.27 0.03-1.99 0.01-3.97 0.01-5.96 0.01-1.13 0.01-2.27 0.01-3.43 0.02-2.67-0.24-2.67-0.24-4.67-2.24-0.25-1.94-0.25-1.94-0.24-4.35-0.01-1.36-0.01-1.36-0.01-2.76 0.01-1.5 0.01-1.5 0.02-3.04v-3.19c0-3.49 0.02-6.99 0.03-10.5 0.01-2.41 0.01-4.83 0.01-7.25 0.01-6.38 0.03-12.8 0.05-19.1 0.02-6.5 0.03-13 0.04-19.5 0.02-12.8 0.06-25.5 0.1-38.3-5.61-0.33-11.2-0.67-17-1-0.01 1.37-0.02 2.75-0.03 4.16-0.1 12.9-0.2 25.9-0.31 38.8-0.06 6.65-0.11 13.3-0.16 20-0.05 6.42-0.1 12.8-0.16 19.2-0.02 2.45-0.03 4.91-0.05 7.36l-0.09 10.3c0 1.03-0.01 2.05-0.01 3.11-0.01 0.93-0.02 1.85-0.03 2.81-0.01 0.81-0.02 1.62-0.02 2.45-0.14 1.85-0.14 1.85-1.14 2.85-2.02 0.1-4.03 0.13-6.05 0.14-1.3 0.01-2.59 0.01-3.92 0.02h-4.28c-1.45 0.01-2.9 0.01-4.35 0.01-3.05 0.01-6.09 0.01-9.14 0.01-3.91 0-7.82 0.01-11.7 0.03-2.99 0.01-5.99 0.01-8.99 0.01-1.44 0-2.88 0.01-4.32 0.02-2.02 0.01-4.03 0-6.04 0h-3.48c-2.7-0.24-2.7-0.24-4.7-2.24-0.25-2.91-0.38-5.73-0.42-8.65-0.03-1.34-0.03-1.34-0.06-2.7-0.06-2.97-0.1-5.94-0.15-8.91-0.04-2.06-0.08-4.13-0.11-6.19-0.3-16.7-0.34-33.4-0.23-50.1 0.06-10.5-0.25-20.9-1.03-31.4-4.95-0.33-9.9-0.67-15-1v4.03c0.02 12.5 0.04 25.1 0.05 37.6 0 6.45 0.01 12.9 0.02 19.3 0.01 6.22 0.02 12.4 0.02 18.6 0 2.38 0.01 4.75 0.01 7.13 0.01 3.32 0.01 6.64 0.01 9.96 0 0.98 0.01 1.97 0.01 2.99v2.74 2.38c-0.12 2.17-0.12 2.17-1.12 6.17h-67c-1.18-2.35-1.13-3.73-1.12-6.35 0-1.36 0-1.36-0.01-2.76 0.01-1 0.01-2 0.01-3.04v-3.19c0-3.49 0.01-6.99 0.02-10.5v-7.25c0.01-6.38 0.02-12.8 0.03-19.1 0.01-6.5 0.01-13 0.02-19.5 0.01-12.8 0.03-25.5 0.05-38.3-5.61-0.33-11.2-0.67-17-1-0.01 1.37-0.02 2.75-0.03 4.16-0.1 12.9-0.2 25.9-0.31 38.8-0.06 6.65-0.11 13.3-0.16 20-0.05 6.42-0.1 12.8-0.16 19.2-0.02 2.45-0.03 4.91-0.05 7.36l-0.09 10.3c0 1.03-0.01 2.05-0.01 3.11-0.01 0.93-0.02 1.85-0.03 2.81-0.01 0.81-0.02 1.62-0.02 2.45-0.14 1.85-0.14 1.85-1.14 2.85-1.96 0.1-3.91 0.13-5.87 0.14-1.25 0.01-2.51 0.01-3.8 0.02h-4.14c-1.41 0.01-2.81 0.01-4.22 0.01-2.95 0.01-5.9 0.01-8.85 0.01-3.79 0-7.58 0.01-11.4 0.03-2.9 0.01-5.81 0.01-8.71 0.01-1.4 0-2.8 0.01-4.19 0.02-1.96 0.01-3.91 0-5.86 0h-3.37c-2.62-0.24-2.62-0.24-4.62-2.24-0.2-2.48-0.27-4.84-0.26-7.32 0-0.76 0-1.52-0.01-2.31 0-2.57 0-5.14 0.01-7.7 0-1.84-0.01-3.68-0.01-5.51-0.01-5-0.01-10 0-15v-15.7c-0.01-8.77 0-17.6 0.01-26.3 0.01-10.2 0-20.3-0.01-30.4-0.01-8.71-0.01-17.4 0-26.1 0-5.2 0-10.4-0.01-15.6 0-4.9 0-9.79 0.01-14.7 0.01-1.8 0.01-3.6 0-5.4 0-2.45 0-4.9 0.01-7.35 0-0.71-0.01-1.43-0.01-2.16 0.03-3.6 0.12-6.43 2.27-9.4 1.57-0.72 3.15-1.42 4.76-2.04 7.38-3.18 14.2-7.92 21-12.2 3.5-2.18 6.97-4.26 10.7-6.07 3.43-1.68 6.41-3.62 9.57-5.74 2.23-1.29 4.49-2.53 6.75-3.77 2.07-1.14 4.1-2.33 6.12-3.55 3.13-1.68 3.13-1.68 6.13-1.68 0.33-1 0.66-1.99 1-3 2.31-1.46 4.58-2.74 7-4 5.79-3.12 11.5-6.26 17-9.79 2.81-1.74 5.7-3.31 8.59-4.89 4.97-2.78 9.82-5.77 14.7-8.74 3.43-2.02 6.9-3.96 10.4-5.9 6.17-3.46 12.3-7 18.3-10.7 6.07-3.71 12.2-7.25 18.4-10.6 1.76-0.97 3.49-1.99 5.18-3.07 2.37-1.32 2.37-1.32 5.37-1.32v-2c1.51-1.15 1.51-1.15 3.61-2.39 0.75-0.44 1.51-0.89 2.28-1.35 0.8-0.46 1.6-0.92 2.42-1.39 0.79-0.47 1.57-0.94 2.38-1.42 5.92-3.45 5.92-3.45 9.31-3.45v-2c6.62-4 6.62-4 10-4v-2c0.48-0.27 0.97-0.54 1.47-0.82 12.9-7.08 12.9-7.08 25.5-14.7 7.73-4.92 15.8-9.34 23.9-13.7 4.5-2.44 8.82-5.07 13.1-7.81 2.1-1.32 4.2-2.63 6.31-3.94 1.01-0.63 2.01-1.26 3.05-1.9 2.89-1.76 5.84-3.38 8.81-4.99 6-3.24 11.9-6.66 17.8-10.1 6.03-3.53 6.03-3.53 9.02-5.27 2.13-1.25 4.25-2.52 6.37-3.8 1.6-0.96 1.6-0.96 3.24-1.94 1.46-0.88 1.46-0.88 2.94-1.77 2.5-1.28 2.5-1.28 5.5-1.28 0.33-1 0.66-1.99 1-3 2.6-1.65 3.86-2 7-2v-2c0.52-0.26 1.04-0.51 1.57-0.77 5.08-2.51 9.88-5.08 14.4-8.49 3-1.74 3-1.74 5.31-1.62z" fill="#F7F8FA"/>
<path transform="translate(0)" d="m0 0h1600l-1 4v-3h-1598v1198c786-0.49 786-0.49 1588-1l-1-11c2.44-3.19 2.44-3.19 5-5 3.46 1.49 3.46 1.49 7 3v15h-1600v-1200z" fill="#131313"/>
<path transform="translate(1,1)" d="m0 0h1598l-1 3-2-1c-2.29-0.1-4.58-0.13-6.88-0.12-1.23-0.01-2.46-0.01-3.74-0.01-3.34 0.05-6.64 0.32-9.97 0.63-5.82 0.5-11.6 0.64-17.4 0.62-1.05 0-2.09 0.01-3.17 0.01-3.5 0-7-0.01-10.5-0.01h-7.64-16.7c-8.31-0.01-16.6-0.01-24.9-0.01-14.2 0.01-28.3 0-42.5 0-14.4-0.01-28.7-0.01-43.1-0.02h-2.75-13.9c-32.5 0-64.9 0-97.4-0.01-34.2-0.01-68.4-0.02-103-0.02h-3.12c-11.5-0.01-23-0.01-34.6-0.01h-64-3.23c-50.8-0.01-102-0.02-152-0.03h-10.1c-36.1-0.01-72.2-0.01-108-0.02-32.6-0.01-65.3-0.01-97.9-0.02h-10.1l-152-0.03h-3.24-63.9c-11.5 0-23 0-34.6-0.01h-3.13c-34.2 0-68.4-0.01-103-0.02-32.4-0.01-64.8-0.01-97.2-0.01h-13.9c-1.36 0-1.36 0-2.75-0.01-14.3 0-28.6 0-42.9-0.01h-42.3c-7.53 0-15.1 0-22.6-0.01-26.3-0.02-52.6-0.01-78.9 0.56-0.94 0.02-1.88 0.04-2.85 0.06-2.58 0.06-5.17 0.12-7.76 0.19-0.75 0.01-1.51 0.03-2.29 0.05-3.8 0.05-3.8 0.05-7.35 1.26v2c0.99 0.33 1.98 0.66 3 1-0.65 2.93-1.57 5.49-2.88 8.19-0.32 0.69-0.65 1.39-0.99 2.1-1.13 1.71-1.13 1.71-4.13 2.71l-2-6h-14l-1 2c-0.47-0.5-0.95-0.99-1.44-1.5-1.32-1.62-1.32-1.62-2.56-1.5v-9h8v2l7-2c-3.23-2.15-4.72-2.38-8.5-2.69-1.44-0.13-1.44-0.13-2.91-0.26-2.71-0.2-2.71-0.2-5.59 0.95v-3z" fill="#000302"/>
<path transform="translate(1593,1182)" d="m0 0c3.46 1.48 3.46 1.48 7 3v15h-1600v-1c787-0.49 787-0.49 1589-1l-1-11c2.44-3.19 2.44-3.19 5-5z" fill="#131313"/>
<path transform="translate(1588,1185)" d="m0 0c1.12 3.37 1.3 6.41 1.52 9.94 0.32 2.45 0.32 2.45 3.48 4.06h-1592l1-3c0.56 0.16 1.13 0.32 1.71 0.49 2.39 0.53 4.5 0.63 6.95 0.63 0.94 0.01 1.88 0.01 2.85 0.01 1.54 0 1.54 0 3.12-0.01 1.66 0.01 1.66 0.01 3.35 0.01 3.73 0 7.47 0 11.2-0.01 2.7 0 5.41 0 8.11 0.01 5.91 0 11.8 0 17.7-0.01h26.6c15.1 0.01 30.2 0 45.2 0 15.3-0.01 30.6-0.01 45.9-0.01h2.93 14.8c35.6 0.01 71.2 0 107 0 35.3-0.01 70.6-0.01 106-0.02h3.32 30 74.6 3.43c55.1 0 110-0.01 165-0.01 19.1-0.01 38.3-0.01 57.4-0.01h3.59c55.1-0.01 110-0.01 165-0.01 3.58-0.01 7.16-0.01 10.7-0.01h71.2c47.2 0 94.4 0 142-0.01h6.74c101 0 202-0.01 304-0.02h2.87c47.4-0.01 94.8-0.01 142-0.02l-1-2c0.09-2.13 0.09-2.13 0.38-4.56 0.09-0.81 0.18-1.61 0.27-2.44 0.35-2 0.35-2 1.35-3z" fill="#000302"/>
<path transform="translate(1599,4)" d="m0 0h1v1181l-2 1v-2c-2.91-0.81-4.46-1.22-7.31-0.06-0.56 0.35-1.12 0.7-1.69 1.06l2-4h7v-1155h-7c-2.6-1.64-3.69-2.9-4.53-5.87-0.7-4.2-0.66-7.33 1.53-11.1 2.96-1.48 5.74-1.06 9-1l1 2 1-6z" fill="#000302"/>
<path transform="translate(1045,519)" d="m0 0h1c0.02 0.58 0.04 1.17 0.06 1.77 0.1 2.66 0.21 5.32 0.32 7.98 0.03 0.92 0.06 1.84 0.09 2.79 0.04 0.89 0.08 1.78 0.12 2.69 0.03 0.82 0.06 1.64 0.09 2.48 0.16 2.28 0.16 2.28 1.32 3.89 1.51 3.62 1.28 7.24 1.27 11.1 0 0.89 0.01 1.78 0.01 2.69 0.01 2.98 0.01 5.95 0.01 8.93 0.01 2.13 0.01 4.26 0.02 6.4 0.02 5.79 0.02 11.6 0.02 17.4 0.01 4.84 0.01 9.67 0.02 14.5 0.02 11.4 0.02 22.8 0.02 34.2 0 11.8 0.02 23.6 0.05 35.3 0.03 10.1 0.04 20.2 0.04 30.3 0 6.03 0 12.1 0.02 18.1 0.02 5.68 0.02 11.4 0.01 17 0 2.09 0 4.17 0.01 6.26 0.02 2.84 0.01 5.68-0.01 8.52 0.01 0.83 0.03 1.66 0.04 2.51-0.05 3.75-0.19 5.75-2.56 8.72-0.65 0.48-1.3 0.96-1.97 1.46l-2-1c-0.02-28.9-0.04-57.8-0.05-86.6v-8c-0.01-0.66-0.01-1.32-0.01-2.01 0-10.7-0.01-21.5-0.02-32.2-0.01-11-0.01-22-0.01-33-0.01-6.19-0.01-12.4-0.02-18.6v-17.5c0-2.14-0.01-4.28-0.01-6.42v-8.74c0-0.85-0.01-1.71-0.01-2.58 0.01-3.63 0.19-6.84 1.13-10.3 0.14-1.44 0.24-2.88 0.32-4.33 0.04-0.8 0.08-1.6 0.12-2.42 0.06-1.24 0.06-1.24 0.12-2.5 0.05-0.84 0.09-1.68 0.13-2.55 0.11-2.06 0.21-4.13 0.31-6.2z" fill="#000302"/>
<path transform="translate(957,392)" d="m0 0c0.25 0.62 0.5 1.24 0.75 1.88 1.51 2.56 2.58 2.9 5.25 4.12 0.8 0.66 1.61 1.32 2.44 2 2.49 1.95 4.63 2.89 7.56 4 2 2 2 2 3.19 5.69 1.51 4.31 3.94 6.65 7.22 9.73 2.12 2.11 3.02 3.64 3.59 6.58-0.16 2.72-0.56 5.3-1 8v3c-2.81 0.69-2.81 0.69-6 1-2.3-1.53-3.12-3.21-4.5-5.62-1.34-2.68-1.34-2.68-4.5-3.38-2.08-2.92-3-4.38-3-8-0.64-0.12-1.28-0.25-1.94-0.38-1.02-0.3-1.02-0.3-2.06-0.62l-1-2c-1.64-0.72-3.31-1.39-5-2v-3h-3c-1.01-1.66-2.01-3.33-3-5-0.87-0.64-1.73-1.28-2.62-1.94-2.99-2.59-3.05-4.21-3.38-8.06l-1-2c3.59-4.79 6.42-4.37 12-4z" fill="#000002"/>
<path transform="translate(794,689)" d="m0 0c2.46-0.03 4.92-0.05 7.38-0.06 0.69-0.01 1.39-0.02 2.11-0.03 5.28-0.02 5.28-0.02 7.51 1.09v25l-5 2v-3c-0.63-1.68-1.29-3.35-2-5l-4 1c0.1 0.6 0.19 1.21 0.29 1.83 0.11 0.8 0.22 1.6 0.33 2.42 0.12 0.79 0.24 1.58 0.36 2.39 0.02 2.36 0.02 2.36-0.95 3.95-1.58 3.7-1.39 7.35-1.44 11.3-0.02 0.86-0.04 1.72-0.06 2.61-0.06 2.74-0.11 5.48-0.15 8.22l-0.12 5.58c-0.1 4.56-0.18 9.11-0.26 13.7-2.48 0.5-2.48 0.5-5 1-0.02-9.21-0.04-18.4-0.05-27.6-0.01-4.27-0.01-8.54-0.03-12.8-0.01-4.12-0.01-8.25-0.01-12.4-0.01-1.57-0.01-3.15-0.02-4.72v-6.61c-0.01-1.26-0.01-2.51-0.01-3.8 0.12-3.06 0.12-3.06 1.12-6.06z" fill="#000202"/>
<path transform="translate(983,651)" d="m0 0c6.16-0.36 6.16-0.36 9.21 0.93 2.93 3.39 2.31 7.07 2.24 11.4 0 0.95 0.01 1.91 0.01 2.89-0.01 3.17-0.04 6.33-0.07 9.5-0.01 2.19-0.01 4.39-0.02 6.58-0.01 5.77-0.05 11.6-0.1 17.3-0.04 5.89-0.05 11.8-0.07 17.7-0.05 11.6-0.12 23.1-0.2 34.7h-1v-5h-2c0-1.06 0-2.13 0.01-3.22 0.02-10 0.03-20.1 0.04-30.1 0.01-5.16 0.01-10.3 0.03-15.5 0.01-4.98 0.01-9.96 0.01-14.9 0.01-1.9 0.01-3.8 0.02-5.7v-7.98c0.01-0.79 0.01-1.57 0.01-2.38 0-4.17-0.3-8.1-1.12-12.2l-8-1 1-3z" fill="#ABB0AB"/>
<path transform="translate(977,651)" d="m0 0c0.5 1.49 0.5 1.49 1 3-1.25 0.06-1.25 0.06-2.52 0.11-1.09 0.07-2.17 0.13-3.29 0.2-1.08 0.06-2.16 0.12-3.27 0.18-2.93 0.2-2.93 0.2-4.31 2.06-1.61 1.45-1.61 1.45-5.17 1.59-1.48-0.09-2.96-0.2-4.44-0.33-1.19-0.08-1.19-0.08-2.4-0.17-7.42-0.55-14.8-1.34-22.2-2.16-5.45-0.61-10.9-1.06-16.4-1.48v-1c6.75-0.73 13.5-1.27 20.2-1.56 0.96-0.04 1.92-0.09 2.9-0.13 13.3-0.52 26.6-0.4 39.8-0.31z" fill="#000302"/>
<path transform="translate(1599,4)" d="m0 0h1v21c-5.67 1.42-5.67 1.42-9 1-2.48-1.65-3.71-2.98-4.54-5.87-0.68-4.21-0.65-7.33 1.54-11.1 2.96-1.48 5.74-1.06 9-1l1 2 1-6z" fill="#000302"/>
<path transform="translate(1556,30)" d="m0 0c0.12 7.75 0.12 7.75-1 10 0.35 0.93 0.7 1.86 1.06 2.81 1.08 3.66 0.68 4.89-1.06 8.19h-7v-2c-0.99-0.33-1.98-0.66-3-1v-2h2c-0.02-0.95-0.04-1.9-0.06-2.88 0.06-3.12 0.06-3.12 1.06-5.12l-4-1v-5h3v-2c3.38-0.84 5.67-1.11 9 0z" fill="#000302"/>
<path transform="translate(794,689)" d="m0 0c2.46-0.03 4.92-0.05 7.38-0.06 0.69-0.01 1.39-0.02 2.11-0.03 5.28-0.02 5.28-0.02 7.51 1.09v7c-0.56-0.5-1.11-0.99-1.69-1.5-2.69-1.75-4.16-1.76-7.31-1.5-0.31 1.09-0.62 2.19-0.94 3.31-1.87 6.5-1.87 6.5-3.06 7.69-0.39 1.34-0.74 2.7-1.06 4.06-0.18 0.74-0.36 1.47-0.54 2.23-0.2 0.84-0.2 0.84-0.4 1.71-0.99-0.33-1.98-0.66-3-1-0.03-3.27-0.05-6.54-0.06-9.81-0.01-0.93-0.02-1.86-0.03-2.82 0-0.89 0-1.78-0.01-2.7 0-0.82-0.01-1.65-0.01-2.49 0.11-2.18 0.11-2.18 1.11-5.18z" fill="#000002"/>
<path transform="translate(801,794)" d="m0 0c1.98 0.66 3.96 1.32 6 2v3h2c-0.12 1.42-0.24 2.83-0.38 4.25-0.06 0.79-0.13 1.58-0.21 2.39-0.43 2.45-1.2 4.21-2.41 6.36-1.96-0.11-3.92-0.24-5.88-0.38-1.09-0.06-2.18-0.13-3.3-0.21-2.82-0.41-2.82-0.41-4.82-2.41 0.06-2.38 0.06-2.38 1-5 1.65-1.35 3.32-2.68 5-4 1.81-3.12 1.81-3.12 3-6z" fill="#000302"/>
<path transform="translate(636,780)" d="m0 0h1c0.23 2.05 0.46 4.1 0.68 6.15 0.14 1.86 0.14 1.86 1.32 2.85 0.1 1.94 0.13 3.87 0.12 5.81 0.01 1.06 0.01 2.12 0.01 3.21-0.11 2.54-0.26 4.61-1.13 6.98-2.79 1.39-4.92 1.26-8 1-2.54-3.81-2.44-5.46-2-10 1.14-3.11 2.5-6.05 4-9h2v-4h2v-3z" fill="#000202"/>
<path transform="translate(1593,1182)" d="m0 0c3.46 1.48 3.46 1.48 7 3v15h-9c-2.2-4.39-3.4-8.07-3-13 2.44-3.06 2.44-3.06 5-5z" fill="#121212"/>
<path transform="translate(984,748)" d="m0 0c2.44 0.06 2.44 0.06 5 1 2.91 3.82 3.34 6.57 3.19 11.3-0.03 1.07-0.06 2.14-0.08 3.24-0.04 0.81-0.07 1.62-0.11 2.45-6.05 0.2-6.05 0.2-8 0-2-2-2-2-2.27-5.19 0.01-1.26 0.01-2.51 0.02-3.81-0.01-1.26-0.01-2.52-0.02-3.81 0.27-3.19 0.27-3.19 2.27-5.19z" fill="#181918"/>
<path transform="translate(1551,10)" d="m0 0c3.17 0.16 5.94 0.3 9-0.56 3.09-0.68 5.91 0.03 9 0.56 0 4 0 4-1.25 5.69-1.92 1.44-3.4 1.9-5.75 2.31v-2c-2.49-0.69-4.38-1-7-1l-1-2c-4.75 0.46-4.75 0.46-9.12 2.19-1.88 0.81-1.88 0.81-4.63-0.07-0.74-0.37-1.48-0.74-2.25-1.12v-4c5.15-2.26 7.74-1.66 13 0z" fill="#000302"/>
<path transform="translate(39.1 7.75)" d="m0 0c5.08 0.03 8.42 0.87 12.9 3.25l-1 4c-0.93 0.12-0.93 0.12-1.88 0.25-0.7 0.25-1.4 0.5-2.12 0.75-0.31 0.66-0.62 1.32-0.94 2-0.35 0.66-0.7 1.32-1.06 2-2.63 0.75-2.63 0.75-5 1v-3c-1-0.33-1.99-0.66-3-1v-2h-3c-0.39-1.99-0.72-3.99-1-6 1.69-1.7 3.8-1.21 6.12-1.25z" fill="#000302"/>
<path transform="translate(1054,686)" d="m0 0h1c0.17 6.17 0.34 12.3 0.5 18.5 0.02 0.91 0.05 1.83 0.07 2.77 0.31 11.8 0.5 23.5 0.41 35.3-0.04 6.09 0.25 12 1 18.1 0.02 2.69-0.59 4.12-1.98 6.39-2.4-3.7-2.24-7.27-2.14-11.5 0.01-0.75 0.02-1.51 0.03-2.28 0.04-2.48 0.09-4.96 0.13-7.43 0.03-1.73 0.05-3.45 0.08-5.17 0.07-4.52 0.14-9.04 0.23-13.6 0.08-4.62 0.15-9.24 0.22-13.8 0.14-9.06 0.29-18.1 0.45-27.2z" fill="#000302"/>
<path transform="translate(631,693)" d="m0 0c3.12-0.19 3.12-0.19 6 0 1.75 3.77 2.22 6.67 2.12 10.8-0.01 0.98-0.03 1.95-0.05 2.96-0.03 1.1-0.03 1.1-0.07 2.23h-3v-2c-1.42-0.09-1.42-0.09-2.88-0.19-3.12-0.81-3.12-0.81-4.56-3.06-0.62-3.04-0.49-4.81 0.44-7.75l2-3z" fill="#000302"/>
<path transform="translate(983,651)" d="m0 0c6.24-0.36 6.24-0.36 9.21 1.04 2.64 2.89 2.29 5.76 2.18 9.47-0.01 0.73-0.01 1.46-0.02 2.21-0.02 2.32-0.07 4.64-0.12 6.97-0.02 1.57-0.04 3.15-0.05 4.73-0.05 3.86-0.12 7.72-0.2 11.6-0.99 0.5-0.99 0.5-2 1-1-5.74-1.09-11.2-1-17.1 0.08-5.44 0.13-10.6-1-15.9l-8-1 1-3z" fill="#A0A49F"/>
<path transform="translate(723,691)" d="m0 0h1l1 16h-2v7h-1v-8h-4v-2c-0.99-0.33-1.98-0.66-3-1-0.09-3.83 0.12-7.27 1-11 2.48 0.99 2.48 0.99 5 2l2-3z" fill="#020404"/>
<path transform="translate(724,715)" d="m0 0 1 2h2v36c-0.99-0.33-1.98-0.66-3-1v-37z" fill="#ABB0AB"/>
<path transform="translate(947,651)" d="m0 0h30l1 3h-32l1-3z" fill="#5E605A"/>
<path transform="translate(632,790)" d="m0 0c2.48 0.99 2.48 0.99 5 2 0.5 5.29-0.81 7.81-4 12l-4-2c-0.37-7.38-0.37-7.38 1.5-10.5l1.5-1.5z" fill="#131313"/>
<path transform="translate(801,797)" d="m0 0c0.99 0.33 1.98 0.66 3 1 0.75 2.75 0.75 2.75 1 6-2.02 2.88-3.36 3.82-6.75 4.75-1.11 0.12-1.11 0.12-2.25 0.25-0.88-2.06-0.88-2.06-1-5 1.74-2.59 3.8-4.79 6-7z" fill="#131313"/>
<path transform="translate(808,694)" d="M0 0 C1 1 1 1 1.19 3.88 C1 7 1 7 -1 10 C-3.97 9.5 -3.97 9.5 -7 9 C-7.78 6.18 -8.2 4.54 -7.19 1.75 C-5.03 -1.43 -3.38 -1.09 0 0 Z " fill="#131313"/>
<path transform="translate(626,565)" d="m0 0 1 3c-0.96 0.43-0.96 0.43-1.94 0.88-2.21 0.95-2.21 0.95-3.06 3.12h-2v-2c-4.95 2.48-4.95 2.48-10 5-0.12-2.69-0.12-2.69 1-6 4.84-3.53 9.07-5.72 15-4z" fill="#020504"/>
<path transform="translate(1591,10)" d="m0 0c2.44 0.81 2.44 0.81 5 2 1.27 3.81 0.65 5.39-1 9-2.12 0.88-2.12 0.88-4 1-1.59-3.48-2.41-6.16-2-10l2-2z" fill="#131313"/>
<path transform="translate(1564,1143)" d="m0 0 4 1c0.22 1.46 0.43 2.92 0.62 4.38 0.12 0.81 0.24 1.62 0.36 2.46 0 0.71 0.01 1.42 0.02 2.16l-2 2c-2.12-0.38-2.12-0.38-4-1-1.6-4-0.29-7.05 1-11z" fill="#000302"/>
<path transform="translate(910 391)" d="m0 0c0.76 0.21 1.53 0.41 2.31 0.62-0.19 2.88-0.19 2.88-1 6-2.56 1.38-2.56 1.38-5 2-1.56-1.24-1.56-1.24-3-3 0.13-2.06 0.13-2.06 1-4 3-2 3-2 5.69-1.62z" fill="#131313"/>
<path transform="translate(1565,42)" d="m0 0c3.38 2.25 3.51 2.73 4.31 6.5 0.18 0.79 0.37 1.59 0.55 2.41 0.05 0.69 0.09 1.38 0.14 2.09l-2 2-1-3c-0.99-0.33-1.98-0.66-3-1-0.19-1.18-0.19-1.18-0.38-2.38-0.41-2.76-0.41-2.76-2.62-4.62l4-2z" fill="#000302"/>
<path transform="translate(1568,30)" d="m0 0c0.92 3.59 1.25 5.42-0.25 8.88-0.58 0.7-1.15 1.4-1.75 2.12h-3c-2.31-6.33-2.31-6.33-0.88-9.44 1.88-1.56 1.88-1.56 5.88-1.56z" fill="#000302"/>
<path transform="translate(674,534)" d="m0 0 3 2h-2c-0.27 0.78-0.54 1.57-0.81 2.38-1.19 2.62-1.19 2.62-4.19 4.62l-5-5c1.32-0.69 2.66-1.35 4-2 0.85-0.41 1.69-0.83 2.56-1.25 0.81-0.25 1.61-0.5 2.44-0.75z" fill="#010303"/>
<path transform="translate(893 407)" d="m0 0c1.7 1.01 3.36 2.09 5 3.19l-5 1v2h-2v-2l-4-2c1.44-2.89 3.02-3.4 6-2.19z" fill="#010403"/>
<path transform="translate(706,514)" d="m0 0c3.47 1.49 3.47 1.49 7 3-1 2-1 2-4.06 3.12-1.46 0.44-1.46 0.44-2.94 0.88v-2l-4-1 4-4z" fill="#040605"/>
<path transform="translate(725,740)" d="m0 0 2 1v12c-0.99-0.33-1.98-0.66-3-1-0.03-1.62-0.05-3.25-0.06-4.88-0.01-0.9-0.03-1.8-0.04-2.74 0.1-2.38 0.1-2.38 1.1-4.38z" fill="#B1B6B2"/>
<path transform="translate(632,695)" d="m0 0c0.99 0.33 1.98 0.66 3 1 1 3 1 3 0.06 5.19-0.52 0.89-0.52 0.89-1.06 1.81h-3c-0.62-2.88-0.62-2.88-1-6l2-2z" fill="#131313"/>
<path transform="translate(1545,1136)" d="m0 0h4c-0.23 0.6-0.45 1.2-0.69 1.81-0.1 0.72-0.2 1.45-0.31 2.19 1.35 1.77 1.35 1.77 3 3h-3v2h-2v-2l-2-1h2v-3h-2l1-3z" fill="#000002"/>
<path transform="translate(724,695)" d="m0 0c0.99 0.33 1.98 0.66 3 1v11c-0.99-0.33-1.98-0.66-3-1v-11z" fill="#B0B4B0"/>
<path transform="translate(884,410)" d="m0 0 3 3h-2v5h-3l-2-5 4-3z" fill="#010403"/>
</svg>
